<?xml version="1.0" encoding="UTF-8" standalone="no"?>
<!-- Created with Inkscape (http://www.inkscape.org/) -->

<svg
   xmlns:dc="http://purl.org/dc/elements/1.1/"
   xmlns:cc="http://creativecommons.org/ns#"
   xmlns:rdf="http://www.w3.org/1999/02/22-rdf-syntax-ns#"
   xmlns:svg="http://www.w3.org/2000/svg"
   xmlns="http://www.w3.org/2000/svg"
   xmlns:sodipodi="http://sodipodi.sourceforge.net/DTD/sodipodi-0.dtd"
   xmlns:inkscape="http://www.inkscape.org/namespaces/inkscape"
   width="74.462761mm"
   height="72.859146mm"
   viewBox="0 0 74.462761 72.859147"
   version="1.1"
   id="svg8"
   inkscape:version="0.92.3 (2405546, 2018-03-11)"
   sodipodi:docname="planet_green.svg"
   style="enable-background:new"
   enable-background="new">
  <defs
     id="defs2" />
  <sodipodi:namedview
     id="base"
     pagecolor="#ffffff"
     bordercolor="#666666"
     borderopacity="1.0"
     inkscape:pageopacity="0.0"
     inkscape:pageshadow="2"
     inkscape:zoom="0.98994949"
     inkscape:cx="308.97349"
     inkscape:cy="232.70288"
     inkscape:document-units="mm"
     inkscape:current-layer="layer1"
     showgrid="false"
     inkscape:window-width="1434"
     inkscape:window-height="878"
     inkscape:window-x="256"
     inkscape:window-y="503"
     inkscape:window-maximized="0" />
  <metadata
     id="metadata5">
    <rdf:RDF>
      <cc:Work
         rdf:about="">
        <dc:format>image/svg+xml</dc:format>
        <dc:type
           rdf:resource="http://purl.org/dc/dcmitype/StillImage" />
        <dc:title />
      </cc:Work>
    </rdf:RDF>
  </metadata>
  <g
     style="display:none"
     inkscape:label="Layer 2 copy"
     id="g21"
     inkscape:groupmode="layer"
     transform="translate(8.2307818,8.2250346)" />
  <g
     inkscape:label="Layer 1"
     inkscape:groupmode="layer"
     id="layer1"
     transform="translate(-57.116613,-62.39767)"
     style="display:inline"
     sodipodi:insensitive="true">
    <ellipse
       style="fill:#999999;stroke-width:0.3571941"
       id="path3715-1-8"
       cx="94.346138"
       cy="98.819641"
       rx="28.998743"
       ry="28.196936" />
    <path
       style="fill:#666666;stroke-width:0.3571941"
       d="m 110.39787,75.371733 a 28.998743,28.196937 0 0 1 9.00152,20.374464 28.998743,28.196937 0 0 1 -28.99874,28.196733 28.998743,28.196937 0 0 1 -15.853815,-4.61471 28.998746,28.196937 0 0 0 19.996197,7.82175 28.998746,28.196937 0 0 0 28.998738,-28.196731 28.998746,28.196937 0 0 0 -13.1439,-23.581506 z"
       id="path3715"
       inkscape:connector-curvature="0" />
    <circle
       style="fill:#666666;stroke-width:0.26458332"
       id="path3780"
       cx="78.241074"
       cy="95.727669"
       r="4.7247024" />
    <path
       style="fill:#4d4d4d;stroke-width:0.26458332"
       d="m 78.240925,91.002787 a 4.7247024,4.7247024 0 0 0 -4.724778,4.724776 4.7247024,4.7247024 0 0 0 2.308905,4.054017 4.7247024,4.7247024 0 0 1 -1.174608,-3.108854 4.7247024,4.7247024 0 0 1 4.724779,-4.724778 4.7247024,4.7247024 0 0 1 2.41587,0.670761 4.7247024,4.7247024 0 0 0 -3.550168,-1.615922 z"
       id="path3780-5"
       inkscape:connector-curvature="0" />
    <circle
       style="fill:#666666;stroke-width:0.10556173"
       id="path3780-4"
       cx="102.79858"
       cy="91.703613"
       r="1.885031" />
    <path
       style="fill:#4d4d4d;stroke-width:0.10556173"
       d="m 102.79852,89.818516 a 1.8850311,1.8850311 0 0 0 -1.88505,1.88506 1.8850311,1.8850311 0 0 0 0.92119,1.617445 1.8850311,1.8850311 0 0 1 -0.46864,-1.24035 1.8850311,1.8850311 0 0 1 1.88506,-1.885061 1.8850311,1.8850311 0 0 1 0.96387,0.267616 1.8850311,1.8850311 0 0 0 -1.41643,-0.64471 z"
       id="path3780-5-8"
       inkscape:connector-curvature="0" />
    <circle
       style="fill:#666666;stroke-width:0.0812407"
       id="path3780-4-4"
       cx="95.248207"
       cy="107.53935"
       r="1.4507267" />
    <path
       style="fill:#4d4d4d;stroke-width:0.0812407"
       d="m 95.248164,106.08857 a 1.4507268,1.4507268 0 0 0 -1.450741,1.45074 1.4507268,1.4507268 0 0 0 0.708951,1.24479 1.4507268,1.4507268 0 0 1 -0.360667,-0.95458 1.4507268,1.4507268 0 0 1 1.450749,-1.45075 1.4507268,1.4507268 0 0 1 0.741798,0.20597 1.4507268,1.4507268 0 0 0 -1.09009,-0.49617 z"
       id="path3780-5-8-0"
       inkscape:connector-curvature="0" />
  </g>
</svg>
