<?xml version="1.0" encoding="UTF-8" standalone="no"?>
<!-- Created with Inkscape (http://www.inkscape.org/) -->

<svg
   xmlns:dc="http://purl.org/dc/elements/1.1/"
   xmlns:cc="http://creativecommons.org/ns#"
   xmlns:rdf="http://www.w3.org/1999/02/22-rdf-syntax-ns#"
   xmlns:svg="http://www.w3.org/2000/svg"
   xmlns="http://www.w3.org/2000/svg"
   xmlns:sodipodi="http://sodipodi.sourceforge.net/DTD/sodipodi-0.dtd"
   xmlns:inkscape="http://www.inkscape.org/namespaces/inkscape"
   width="44.600895mm"
   height="105.46953mm"
   viewBox="0 0 44.600895 105.46953"
   version="1.1"
   id="svg8"
   inkscape:version="0.92.3 (2405546, 2018-03-11)"
   sodipodi:docname="ship_purple.svg">
  <defs
     id="defs2" />
  <sodipodi:namedview
     id="base"
     pagecolor="#ffffff"
     bordercolor="#666666"
     borderopacity="1.0"
     inkscape:pageopacity="0.0"
     inkscape:pageshadow="2"
     inkscape:zoom="0.49497475"
     inkscape:cx="-67.093686"
     inkscape:cy="107.76145"
     inkscape:document-units="mm"
     inkscape:current-layer="layer1"
     showgrid="false"
     inkscape:window-width="1920"
     inkscape:window-height="1017"
     inkscape:window-x="-8"
     inkscape:window-y="428"
     inkscape:window-maximized="1">
    <inkscape:grid
       type="xygrid"
       id="grid22"
       originx="-78.997245"
       originy="-171.58698" />
  </sodipodi:namedview>
  <metadata
     id="metadata5">
    <rdf:RDF>
      <cc:Work
         rdf:about="">
        <dc:format>image/svg+xml</dc:format>
        <dc:type
           rdf:resource="http://purl.org/dc/dcmitype/StillImage" />
        <dc:title></dc:title>
      </cc:Work>
    </rdf:RDF>
  </metadata>
  <g
     inkscape:label="Layer 1"
     inkscape:groupmode="layer"
     id="layer1"
     transform="translate(-78.997245,-19.943485)">
    <path
       style="fill:#000000;stroke-width:0.99999994"
       d="M 382.85742,75.376953 A 84.285711,262.85716 0 0 0 298.57227,338.23438 84.285711,262.85716 0 0 0 310.7832,474.00195 h 144.125 A 84.285711,262.85716 0 0 0 467.14258,338.23438 84.285711,262.85716 0 0 0 382.85742,75.376953 Z"
       transform="scale(0.26458333)"
       id="path12"
       inkscape:connector-curvature="0" />
    <path
       id="path29"
       d="M 101.1087,34.33617 A 13.934261,51.271234 0 0 0 87.174535,85.607456 13.934261,51.271234 0 0 0 89.193267,112.08942 H 113.02027 A 13.934261,51.271234 0 0 0 115.04286,85.607456 13.934261,51.271234 0 0 0 101.1087,34.33617 Z"
       style="fill:#5500d4;stroke-width:0.17957339"
       inkscape:connector-curvature="0" />
  </g>
</svg>
