<?xml version="1.0" encoding="UTF-8" standalone="no"?>
<!-- Created with Inkscape (http://www.inkscape.org/) -->

<svg
   xmlns:dc="http://purl.org/dc/elements/1.1/"
   xmlns:cc="http://creativecommons.org/ns#"
   xmlns:rdf="http://www.w3.org/1999/02/22-rdf-syntax-ns#"
   xmlns:svg="http://www.w3.org/2000/svg"
   xmlns="http://www.w3.org/2000/svg"
   xmlns:sodipodi="http://sodipodi.sourceforge.net/DTD/sodipodi-0.dtd"
   xmlns:inkscape="http://www.inkscape.org/namespaces/inkscape"
   width="10.583333mm"
   height="10.583333mm"
   viewBox="0 0 10.583333 10.583333"
   version="1.1"
   id="svg8"
   sodipodi:docname="slider_icon.svg"
   inkscape:version="0.92.3 (2405546, 2018-03-11)">
  <defs
     id="defs2" />
  <sodipodi:namedview
     id="base"
     pagecolor="#ffffff"
     bordercolor="#666666"
     borderopacity="1.0"
     inkscape:pageopacity="0.0"
     inkscape:pageshadow="2"
     inkscape:zoom="7.9195959"
     inkscape:cx="8.0526748"
     inkscape:cy="12.131312"
     inkscape:document-units="mm"
     inkscape:current-layer="layer1"
     showgrid="false"
     inkscape:window-width="1445"
     inkscape:window-height="694"
     inkscape:window-x="26"
     inkscape:window-y="462"
     inkscape:window-maximized="0"
     showguides="true"
     inkscape:guide-bbox="true">
    <inkscape:grid
       type="xygrid"
       id="grid4559"
       originx="-80.721537"
       originy="-173.27847" />
  </sodipodi:namedview>
  <metadata
     id="metadata5">
    <rdf:RDF>
      <cc:Work
         rdf:about="">
        <dc:format>image/svg+xml</dc:format>
        <dc:type
           rdf:resource="http://purl.org/dc/dcmitype/StillImage" />
        <dc:title />
      </cc:Work>
    </rdf:RDF>
  </metadata>
  <g
     inkscape:label="Layer 1"
     inkscape:groupmode="layer"
     id="layer1"
     transform="translate(-80.72154,-113.1382)">
    <path
       style="fill:#ffffff;stroke-width:0.26458332"
       id="path14"
       d="m 30.495359,102.8599 c 0.764238,0.69264 1.468331,1.44737 2.245987,2.12736 0.426537,0.52629 0.9652,0.94566 1.439129,1.42449 1.129702,1.1414 -0.447185,-0.33991 0.676839,0.69954 0.832175,0.82536 1.728557,1.58598 2.58658,2.3862 0.198265,0.18981 0.390916,0.38565 0.594796,0.5694 1.183437,1.06662 0.05396,-0.0292 1.167088,1.02748 0.570267,0.54136 1.115277,1.11012 1.663618,1.67337 1.045302,0.97919 2.098976,1.95333 3.08787,2.99022 0.832313,0.80884 1.731867,1.54245 2.532377,2.38394 0.782109,0.68728 1.517126,1.42436 2.265572,2.14889 0.481245,0.2819 0.866476,0.6813 1.286592,1.03821 0.461875,0.39239 0.906285,0.74667 1.33105,1.18329 0.852492,0.74102 1.686308,1.49886 2.482723,2.29947 0.85545,0.66178 1.548093,1.49242 2.321009,2.23874 0.46014,0.56587 1.073193,0.97807 1.582079,1.49416 0.573236,0.64939 0.278736,0.33912 0.881943,0.93227 0.898761,0.95593 1.89283,1.81888 2.846825,2.71967 1.117226,0.80456 2.050269,1.81736 3.062581,2.73956 0.140806,0.14319 0.274653,0.29357 0.42242,0.42956 0.136078,0.12523 0.291465,0.22828 0.427969,0.35305 0.513186,0.46905 0.973209,0.98992 1.506027,1.43679 0.675082,0.68632 1.343573,1.37426 2.042401,2.03595 0.720717,0.83739 1.656185,1.44547 2.478838,2.17088 0.889741,0.75974 1.847406,1.43258 2.763034,2.15849 1.022921,0.63853 1.852869,1.51951 2.833333,2.21662 0.422835,0.42185 0.950804,0.67195 1.452533,0.97235 0.47426,0.28396 0.888034,0.58942 1.389991,0.8289 0.16859,0.0853 0.337177,0.17059 0.505764,0.25588 0.181602,0.0734 0.36898,0.13388 0.544809,0.2202 0.352145,0.17289 0.670912,0.40823 1.020591,0.58605 0.34441,0.17514 0.70145,0.32443 1.048242,0.4948 0.189145,0.0762 0.384156,0.13925 0.567438,0.22866 0.361091,0.17613 0.688282,0.41593 1.046062,0.5987 0.528704,0.27008 1.078238,0.51112 1.627979,0.73423 1.223235,0.64168 2.457947,1.24099 3.795104,1.59988 1.114719,0.51416 2.291948,0.85238 3.46679,1.19617 0.620345,0.16332 1.253355,0.26923 1.890586,0.33867 0.214656,0.0234 0.432525,0.0205 0.645181,0.0579 0.168741,0.0297 0.980855,0.27529 1.152922,0.32628 1.152125,0.36214 2.356416,0.45743 3.554979,0.52036 1.31842,0.0505 2.63811,0.0437 3.95723,0.0438 0.7995,0.0512 1.57423,-0.12438 2.33076,-0.35746 0.19037,-0.0586 0.3892,-0.0928 0.57304,-0.16951 0.17624,-0.0735 0.33379,-0.18564 0.50068,-0.27845 1.84921,-1.02704 -1.6229,0.93419 -2.44598,1.38027 -0.15149,0.0821 0.28614,-0.19209 0.42723,-0.29099 0.50318,-0.35273 0.98532,-0.73321 1.48456,-1.09158 0.90549,-0.69315 1.76877,-1.43299 2.60398,-2.20806 0.80097,-0.74796 1.4423,-1.65164 2.08562,-2.53515 0.6657,-1.00011 1.30766,-2.01891 1.99115,-3.00667 0.62738,-0.92878 1.19327,-1.9012 1.7566,-2.8706 0.68493,-1.15573 1.25026,-2.37228 1.82754,-3.58295 0.41198,-1.07426 0.98106,-2.06915 1.50656,-3.08922 0.48008,-1.06511 1.02109,-2.09637 1.46544,-3.17888 0.20134,-0.77581 0.61029,-1.47093 0.88697,-2.21784 0.23343,-0.70578 0.1121,-0.36016 0.36293,-1.03724 0.37957,-1.08882 0.71014,-2.19582 1.04316,-3.30105 0.28777,-1.29883 0.59407,-2.59621 0.80849,-3.91009 0.19298,-1.32084 0.22356,-2.65728 0.24263,-3.98971 0.0198,-1.26681 0.0296,-2.53104 -0.0703,-3.79439 -0.0155,-0.1834 -0.0309,-0.36681 -0.0464,-0.55022 0,0 3.48127,-1.81037 3.48127,-1.81037 v 0 c 0.0151,0.184 0.0303,0.368 0.0454,0.55201 0.10417,1.27641 0.0858,2.55423 0.0736,3.83421 -0.0187,1.34879 -0.0407,2.70096 -0.21861,4.04027 -0.20499,1.32922 -0.52458,2.63384 -0.78215,3.95291 -0.169,0.59197 -0.39912,1.16864 -0.56499,1.75939 -0.14657,0.52199 -0.20033,1.07417 -0.44685,1.56813 -0.22511,0.5226 -0.35739,1.06635 -0.5788,1.59021 -0.15123,0.35781 -0.36344,0.68885 -0.5016,1.05191 -0.0764,0.20074 -0.12122,0.4121 -0.18184,0.61816 -0.21464,0.55498 -0.43766,1.11237 -0.69028,1.65148 -0.081,0.17285 -0.17429,0.33965 -0.26144,0.50947 -0.0942,0.15923 -0.20306,0.31069 -0.28271,0.47769 -0.087,0.1825 -0.14371,0.378 -0.21557,0.56699 -0.2424,0.51474 -0.51264,1.01313 -0.78638,1.51186 -0.0852,0.15524 -0.1949,0.29724 -0.26951,0.45785 -0.0838,0.18044 -0.12919,0.37658 -0.20384,0.56101 -0.0771,0.19051 -0.16744,0.37539 -0.25117,0.56308 -0.61339,1.17002 0.027,-0.0914 -0.5629,1.20824 -0.37141,0.81831 -0.84201,1.5912 -1.25311,2.38867 -0.53321,0.99798 -1.15027,1.94852 -1.73483,2.9161 -0.38051,0.48038 -0.66207,0.99758 -1.0051,1.50465 -0.21963,0.32468 -0.47494,0.62469 -0.68777,0.95388 -0.11237,0.1738 -0.19982,0.3625 -0.29973,0.54376 -0.22375,0.3125 -0.42885,0.63888 -0.66728,0.94033 -0.11271,0.14249 -0.25248,0.26242 -0.36259,0.40694 -0.32712,0.42934 -0.58089,0.91792 -1.01282,1.26416 -1.58317,1.33109 0.80626,-0.70761 -0.75811,0.72972 -0.13431,0.1234 -0.29341,0.21709 -0.43336,0.33405 -0.47368,0.39587 -0.95256,0.78166 -1.41273,1.19378 -0.50972,0.34191 -0.96569,0.73636 -1.46301,1.09273 -1.33061,0.9535 -2.79749,1.70104 -4.20913,2.52986 -0.16058,0.0943 -0.33096,0.17079 -0.49645,0.25618 -1.11345,0.46573 -2.28648,0.71669 -3.4996,0.65601 -1.32481,7.9e-4 -2.650537,0.004 -3.974142,-0.0597 -1.221279,-0.0775 -2.442167,-0.20804 -3.613004,-0.58595 -0.362871,-0.1013 -0.729851,-0.21518 -1.103236,-0.27435 -0.862415,-0.13666 -1.744959,-0.17413 -2.581584,-0.45486 -1.170104,-0.35087 -2.335766,-0.70494 -3.455615,-1.19852 -1.337389,-0.40047 -2.577661,-1.02019 -3.829357,-1.63189 -1.115271,-0.47386 -2.155415,-1.08251 -3.257843,-1.57807 -1.052172,-0.50475 -2.063459,-1.08068 -3.129164,-1.55618 -1.00765,-0.52687 -1.968706,-1.16318 -2.863307,-1.86314 -0.974413,-0.71452 -1.833182,-1.56995 -2.851889,-2.22442 -0.923787,-0.72432 -1.87811,-1.40884 -2.766425,-2.17849 -0.839605,-0.71887 -1.778606,-1.33436 -2.507885,-2.17549 -0.685379,-0.66551 -1.35805,-1.33994 -2.029422,-2.01965 -0.808615,-0.71628 -1.547316,-1.51369 -2.345037,-2.24199 -0.999448,-0.93501 -1.945592,-1.93002 -3.04546,-2.75319 -0.966009,-0.89579 -1.98402,-1.74157 -2.870478,-2.71833 -0.297862,-0.29765 -0.573066,-0.61757 -0.873913,-0.9122 -0.522674,-0.51186 -1.140214,-0.92883 -1.601735,-1.50445 -0.764026,-0.75938 -1.481526,-1.56508 -2.326677,-2.24052 -0.797472,-0.79747 -1.62406,-1.56296 -2.470967,-2.30797 -0.813848,-0.80435 -1.717633,-1.51161 -2.621402,-2.21161 -0.7468,-0.73422 -1.511117,-1.44626 -2.279705,-2.15716 -0.798815,-0.83793 -1.688876,-1.57909 -2.508211,-2.39622 -0.996378,-1.02545 -2.030177,-2.01437 -3.067626,-2.99787 -1.109134,-1.11818 -2.234005,-2.21619 -3.424346,-3.24821 -0.87166,-0.79274 -1.796135,-1.52911 -2.622786,-2.36875 -0.718973,-0.68752 -1.407644,-1.40914 -2.105694,-2.11809 -0.755923,-0.68723 -1.453497,-1.43633 -2.256052,-2.07063 0,0 3.347461,-2.12816 3.347461,-2.12816 z"
       inkscape:connector-curvature="0" />
    <path
       style="fill:#000000;fill-opacity:1;stroke-width:3.77952766;stroke-linecap:round;stroke-miterlimit:4;stroke-dasharray:none"
       d="M 20.076172 0.099609375 A 20.20305 19.950512 0 0 0 -0.12695312 20.048828 A 20.20305 19.950512 0 0 0 20.076172 40 A 20.20305 19.950512 0 0 0 40.279297 20.048828 A 20.20305 19.950512 0 0 0 20.076172 0.099609375 z M 20.076172 9.9472656 A 10.101525 9.9752561 0 0 1 30.177734 19.923828 A 10.101525 9.9752561 0 0 1 20.076172 29.898438 A 10.101525 9.9752561 0 0 1 9.9746094 19.923828 A 10.101525 9.9752561 0 0 1 20.076172 9.9472656 z "
       transform="matrix(0.26458333,0,0,0.26458333,80.72154,113.1382)"
       id="path823" />
  </g>
</svg>
